# xmcd
#
# Track frame offsets: 
#        150
#        23076
#        38493
#        58710
#        76712
#        100067
#        114238
#        135853
#        154070
#        172605
#        199830
#        210177
#        220003
#
# Disc length: 3392 seconds
#
# Revision: 2
# Processed by: cddbd v1.5.2PL0 Copyright (c) Steve Scherf et al.
# Submitted via: ExactAudioCopyFreeDBPlugin 1.0
#
DISCID=8c0d3e0d
DTITLE=Hubert von Goisern - Die Grossen Erfolge - 1992-1998
DYEAR=2009
DGENRE=Pop-Folk
TTITLE0=Goisern [Live]
TTITLE1=Kren and Speck
TTITLE2=Heast as net
TTITLE3=Oben und unten
TTITLE4=Weit, weit weg
TTITLE5=Iawaramoi (Steirer)
TTITLE6=Wieder hoam
TTITLE7=Koa Hiatamadl [Radio Version]
TTITLE8=GOMBE
TTITLE9=Kokain-Blues
TTITLE10=Komm oh Tod du Schlafes Bruder
TTITLE11=Schleiniger
TTITLE12=Wildschütz - Räp
EXTD=
EXTT0=
EXTT1=
EXTT2=
EXTT3=
EXTT4=
EXTT5=
EXTT6=
EXTT7=
EXTT8=
EXTT9=
EXTT10=
EXTT11=
EXTT12=
PLAYORDER=
